<?xml version="1.0" standalone="no"?><!DOCTYPE svg PUBLIC "-//W3C//DTD SVG 1.1//EN" "http://www.w3.org/Graphics/SVG/1.1/DTD/svg11.dtd">
<svg t="1622874082290" class="icon" viewBox="0 0 1024 1024" version="1.1" xmlns="http://www.w3.org/2000/svg" p-id="6092" xmlns:xlink="http://www.w3.org/1999/xlink" width="200" height="200">
<defs>
<style type="text/css"></style></defs>
<path d="M640.57142832 415.57142832c12.85714248 0 19.28571416-6.42857168 25.71428584-12.85714248L891.28571416 190.57142832v109.28571416c0 6.42857168 0 19.28571416 6.42857168 19.28571504 6.42857168 6.42857168 12.85714248 6.42857168 19.28571416 6.4285708h12.85714248c19.28571416 0 32.14285752-6.42857168 32.14285752-25.71428584V87.71428584c0-12.85714248-6.42857168-19.28571416-6.42857168-19.28571416-6.42857168 0-12.85714248-6.42857168-19.28571416-6.42857168h-205.71428584c-19.28571416 0-32.14285752 12.85714248-32.14285664 32.14285752v12.85714248c0 19.28571416 12.85714248 32.14285752 32.14285664 25.71428584h109.28571416L614.85714248 357.71428584c-6.42857168 6.42857168-12.85714248 12.85714248-12.85714248 25.71428584s6.42857168 19.28571416 12.85714248 25.71428584c6.42857168 6.42857168 19.28571416 6.42857168 25.71428585 6.42857081zM383.42857168 608.42857168c-12.85714248 0-19.28571416 6.42857168-25.71428584 12.85714248L139.14285752 833.42857168v-109.28571416c0-6.42857168 0-12.85714248-6.42857168-19.28571504-12.85714248-6.42857168-19.28571416-12.85714248-25.71428584-12.85714248H94.14285752c-19.28571416 6.42857168-32.14285752 12.85714248-32.14285752 32.14285752V936.28571416c0 12.85714248 6.42857168 19.28571416 6.42857168 19.28571416 6.42857168 0 12.85714248 6.42857168 19.28571416 6.42857168h205.71428584c19.28571416 0 32.14285752-12.85714248 32.14285665-32.14285752v-12.85714248c0-19.28571416-12.85714248-25.71428584-32.14285665-25.71428584H184.14285752l218.57142832-218.57142832c12.85714248-12.85714248 19.28571416-19.28571416 19.28571416-32.14285752s-6.42857168-19.28571416-12.85714248-25.71428584c-6.42857168-6.42857168-19.28571416-6.42857168-25.71428584-6.4285708zM190.57142832 139.14285752h109.28571416c19.28571416 0 32.14285752-12.85714248 32.14285752-32.14285752V94.14285752C325.57142832 74.85714248 312.71428584 62 299.85714248 62H87.71428584C81.28571416 62 74.85714248 62 68.42857168 68.42857168c0 6.42857168-6.42857168 12.85714248-6.42857168 25.71428584v212.14285664c0 12.85714248 12.85714248 19.28571416 32.14285752 25.71428584h12.85714248c6.42857168 0 12.85714248 0 19.28571416-6.42857168 6.42857168-6.42857168 6.42857168-12.85714248 6.42857168-19.28571416V197l218.57142832 218.57142832H383.42857168c6.42857168 0 19.28571416-6.42857168 25.71428584-12.85714248 12.85714248-12.85714248 12.85714248-38.57142832 0-51.42857168L190.57142832 139.14285752zM929.85714248 692h-12.85714248c-6.42857168 0-12.85714248 0-19.28571416 6.42857168-6.42857168 6.42857168-6.42857168 12.85714248-6.42857168 19.28571416v109.28571416L666.28571416 614.85714248c-12.85714248-12.85714248-38.57142832-12.85714248-51.42857168 0-6.42857168 6.42857168-12.85714248 19.28571416-12.85714248 25.71428585 0 12.85714248 6.42857168 19.28571416 12.85714248 25.71428583l218.5714292 218.57142832h-109.28571416c-19.28571416 0-32.14285752 12.85714248-32.14285752 32.14285752v12.85714248c0 19.28571416 12.85714248 32.14285752 32.14285752 32.14285752h205.71428496c6.42857168 0 12.85714248 0 19.28571504-6.42857168 6.42857168-6.42857168 6.42857168-12.85714248 6.42857081-19.28571416v-212.14285664c6.42857168-19.28571416-6.42857168-25.71428584-25.71428585-32.14285752z" fill="#8c8c8c" p-id="6093"></path></svg>